<svg id="Layer_1" enable-background="new 0 0 100 100" viewBox="0 0 100 100" xmlns="http://www.w3.org/2000/svg"><path d="m96.0749969 22.9321423-18.9999923-18.994989c-1.9000015-1.8994987-4.75-1.8994987-6.6500015 0-1.8999939 1.8994989-1.8999939 4.7487473 0 6.6482453l10.9249954 10.9221182h-59.8499966c-2.8500004 0-4.75 1.899498-4.75 4.7487469s1.8999996 4.7487469 4.75 4.7487469h59.8499985l-10.925005 10.9221172c-1.8999939 1.899498-1.8999939 4.7487488 0 6.6482468 1.9000015 1.8994942 4.75 1.8994942 6.6500015 0l19-18.9949894c1.9000016-1.8994961 1.9000016-4.7487469 0-6.6482429z"/><path d="m78.5 68.9949875h-59.8499985l10.9249992-10.9221191c1.8999996-1.899498 1.8999996-4.7487488 0-6.6482468-1.9000015-1.8994942-4.75-1.8994942-6.6499996 0l-19 18.9949875c-1.8999999 1.899498-1.8999999 4.7487488 0 6.6482468l19 18.9949951c1.8999996 1.8994904 4.7499981 1.8994904 6.6499996 0 1.8999996-1.899498 1.8999996-4.7487488 0-6.6482468l-10.9249992-10.9221268h59.8499985c2.8499985 0 4.75-1.8994904 4.75-4.7487411s-1.9000015-4.7487488-4.75-4.7487488z"/></svg>